<svg width="225" height="18" viewBox="0 0 225 18" fill="none" xmlns="http://www.w3.org/2000/svg">
<g clip-path="url(#clip0_31639_29937)">
<path d="M52.2736 17.5H49.1924L47.2368 13.704H35.7994L33.8439 17.5H30.7627L39.7434 0.508217H43.2847L52.2736 17.4918V17.5ZM45.8647 11.1651L41.5346 2.93209L37.1551 11.1651H45.8647ZM86.8405 17.5H83.3403L70.3664 3.57298V17.5H67.5481V0.508217H71.0401L84.014 14.4434V0.508217H86.8323V17.4918L86.8405 17.5ZM121.227 3.04712V0.508217H102.173V3.03891H110.29V5.58603H104.983V8.11672H110.29V17.4836H113.109V8.11672H118.408V5.58603H113.109V3.03891H121.227V3.04712ZM154.348 3.04712H139.377V7.73055H149.327V10.2695H139.377V14.9693H154.364V17.5H136.567V0.508217H154.356V3.03891L154.348 3.04712ZM225.133 17.5H222.052L220.096 13.704H208.651L206.695 17.5H203.614L212.603 0.508217H216.144L225.133 17.4918V17.5ZM218.732 11.1651L214.402 2.93209L210.023 11.1651H218.732ZM13.8531 0.5H0V17.5H2.81005V11.0089H13.8531C16.7535 11.0089 19.1116 8.64258 19.1116 5.74215C19.1116 2.84171 16.7617 0.5 13.8531 0.5ZM13.8531 8.47003H2.81005V3.03891H13.8531C15.3485 3.03891 16.5563 4.24674 16.5563 5.73393C16.5563 7.22934 15.3485 8.46182 13.8449 8.46182L13.8531 8.47003ZM188.964 17.5L184.461 10.9186C186.926 10.4831 188.808 8.33857 188.808 5.74215C188.816 2.84171 186.466 0.5 183.557 0.5H169.704V17.5H172.522V11.0089H181.101L185.694 17.5H188.972H188.964ZM172.514 3.03891H183.557C185.053 3.03891 186.261 4.24674 186.261 5.74215C186.261 7.24577 185.044 8.47003 183.557 8.47003H172.514V3.03891Z" fill="#232328"/>
</g>
<defs>
<clipPath id="clip0_31639_29937">
<rect width="225.133" height="17" fill="white" transform="translate(0 0.5)"/>
</clipPath>
</defs>
</svg>
